<?xml version="1.0" encoding="UTF-8"?>
<svg width="132px" height="24px" viewBox="0 0 132 24" version="1.1" xmlns="http://www.w3.org/2000/svg" xmlns:xlink="http://www.w3.org/1999/xlink">
    <title>Group 27</title>
    <defs>
        <polygon id="path-1" points="0.122302489 0.242666667 10.5502591 0.242666667 10.5502591 10.6087718 0.122302489 10.6087718"></polygon>
        <polygon id="path-3" points="0 0.117448218 10.3664052 0.117448218 10.3664052 10.544852 0 10.544852"></polygon>
    </defs>
    <g id="Symbols" stroke="none" stroke-width="1" fill="none" fill-rule="evenodd">
        <g id="Group-27">
            <g id="Group-3" transform="translate(6.222222, 0.201778)">
                <mask id="mask-2" fill="white">
                    <use xlink:href="#path-1"></use>
                </mask>
                <g id="Clip-2"></g>
                <path d="M5.40617778,10.6073333 C5.7084,10.5326667 9.69728889,7.73711111 10.4688444,3.96866667 C10.9741778,1.51888889 9.02528889,0.0846666667 7.43417778,0.287777778 C5.84262222,0.490444444 5.62484444,1.18111111 5.39906667,1.214 C5.17462222,1.24511111 4.8404,0.47 3.25062222,0.262888889 C1.65995556,0.0531111111 -0.292933333,1.482 0.199955556,3.93355556 C0.964844444,7.70377778 5.10351111,10.6837778 5.40617778,10.6073333" id="Fill-1" fill="#65B32E" mask="url(#mask-2)"></path>
            </g>
            <g id="Group-6" transform="translate(0.000000, 6.868444)">
                <mask id="mask-4" fill="white">
                    <use xlink:href="#path-3"></use>
                </mask>
                <g id="Clip-5"></g>
                <path d="M10.3649333,5.26275556 C10.2907111,4.96142222 7.49693333,0.973422222 3.72715556,0.198311111 C1.27693333,-0.305244444 -0.156844444,1.64453333 0.0467111111,3.23475556 C0.248044444,4.82408889 0.938711111,5.04542222 0.969377778,5.27031111 C1.00404444,5.49253333 0.226266667,5.83075556 0.0200444444,7.41964444 C-0.1884,9.00986667 1.24048889,10.9609778 3.69026667,10.4667556 C7.46271111,9.70675556 10.4422667,5.56453333 10.3649333,5.26275556" id="Fill-4" fill="#65B32E" mask="url(#mask-4)"></path>
            </g>
            <path d="M12.95,12.0732444 C13.0233333,12.3741333 15.8188889,16.3630222 19.586,17.1354667 C22.0393333,17.6408 23.4722222,15.6919111 23.2682222,14.1008 C23.0651111,12.5105778 22.3735556,12.2901333 22.3411111,12.0643556 C22.3131111,11.8425778 23.0877778,11.5052444 23.294,9.91635556 C23.5024444,8.32524444 22.0748889,6.37324444 19.622,6.86835556 C15.854,7.63013333 12.8726667,11.7714667 12.95,12.0732444" id="Fill-7" fill="#65B32E"></path>
            <path d="M11.6869778,13.3944 C11.3856444,13.4677333 7.39675556,16.2628444 6.62342222,20.0317333 C6.12164444,22.4824 8.06786667,23.9144 9.65897778,23.7121778 C11.2487556,23.5095111 11.4683111,22.8188444 11.6958667,22.7855111 C11.9185333,22.7552889 12.2545333,23.5299556 13.8456444,23.7370667 C15.4340889,23.9459556 17.3878667,22.5192889 16.8909778,20.0681778 C16.1309778,16.2975111 11.9887556,13.3161778 11.6869778,13.3944" id="Fill-9" fill="#65B32E"></path>
            <path d="M32.4834222,3.55675387 C32.4834222,3.55675387 30.1429778,13.9003111 29.7172,15.7789778 C29.0629778,18.6634222 30.2936444,20.6305333 33.1874222,20.6305333 C36.2674222,20.6305333 37.3652,19.4012 37.3652,19.4012 C37.3652,19.4012 37.4554222,20.6278667 38.7407556,20.6278667 C40.0265333,20.6278667 43.4554222,20.6349778 43.4554222,20.6349778 C43.4554222,20.6349778 45.8612,10.0100889 46.1243111,8.84475556 C47.3300889,3.52786667 41.0069778,3.55675387 41.0069778,3.55675387 C41.0069778,3.55675387 38.4763111,14.7238667 38.3474222,15.2900889 C38.0700889,16.5140889 35.9083111,16.4820889 36.2149778,15.1914222 C36.4580889,14.1607556 37.4469778,9.73142222 37.6296444,8.92386667 C38.8532,3.55675387 32.4834222,3.55675387 32.4834222,3.55675387" id="Fill-11" fill="#65B32E"></path>
            <path d="M58.9244,19.1183556 C58.7892889,19.6796889 58.9190667,20.6348 60.2061778,20.6348 C61.4915111,20.6348 64.5626222,20.6405778 64.5626222,20.6405778 C64.5626222,20.6405778 66.9630667,10.0201333 67.2195111,8.85346667 C68.3839556,3.55657778 62.4666222,3.55391111 62.4666222,3.55391111 C62.4666222,3.55391111 59.0608444,18.5565778 58.9244,19.1183556" id="Fill-13" fill="#65B32E"></path>
            <path d="M55.6592,10.7336 C55.6005333,11.0238222 55.4165333,11.7789333 55.4165333,11.7789333 L52.7498667,11.7789333 C52.7498667,11.7789333 52.9369778,10.8873778 53.0516444,10.4736 C53.2214222,9.86382222 53.9654222,9.92115556 54.7289778,9.92115556 C55.4920889,9.92115556 55.7400889,10.3198222 55.6592,10.7336 M54.0805333,7.08337778 C51.5680889,7.08337778 47.8360889,7.6176 47.0552,11.1167111 C46.2734222,14.6140444 46.5952,13.2131556 45.9734222,15.8238222 C44.9178667,20.2460444 48.3458667,20.6358222 50.1663111,20.6358222 C50.8098667,20.6358222 57.1067556,20.6260444 57.1067556,20.6260444 L57.9654222,16.7736 L53.6289778,16.7736 C51.9680889,16.7736 51.8178667,15.7371556 51.9552,15.1798222 C52.0107556,14.9531556 52.1547556,14.4011556 52.1547556,14.4011556 L58.4774222,14.4038222 C58.4774222,14.4038222 59.0360889,11.8989333 59.3609778,10.5291556 C59.9223111,8.16693333 57.2440889,7.08337778 54.0805333,7.08337778" id="Fill-15" fill="#65B32E"></path>
            <path d="M87.9786667,10.7336 C87.9222222,11.0238222 87.7382222,11.7789333 87.7382222,11.7789333 L85.0706667,11.7789333 C85.0706667,11.7789333 85.2564444,10.8873778 85.372,10.4736 C85.5422222,9.86382222 86.2857778,9.92115556 87.0497778,9.92115556 C87.8128889,9.92115556 88.0595556,10.3198222 87.9786667,10.7336 M86.4022222,7.08337778 C83.8875556,7.08337778 80.156,7.6176 79.3755556,11.1167111 C78.5946667,14.6140444 78.916,13.2131556 78.2937778,15.8238222 C77.24,20.2460444 80.6662222,20.6358222 82.4866667,20.6358222 C83.1297778,20.6358222 89.4275556,20.6260444 89.4275556,20.6260444 L90.2857778,16.7736 L85.9493333,16.7736 C84.2884444,16.7736 84.1382222,15.7371556 84.2746667,15.1798222 C84.3311111,14.9531556 84.476,14.4011556 84.476,14.4011556 L90.7982222,14.4038222 C90.7982222,14.4038222 91.3555556,11.8989333 91.6808889,10.5291556 C92.2417778,8.16693333 89.5644444,7.08337778 86.4022222,7.08337778" id="Fill-17" fill="#65B32E"></path>
            <path d="M116.055911,10.7336 C115.999467,11.0238222 115.814578,11.7789333 115.814578,11.7789333 L113.147911,11.7789333 C113.147911,11.7789333 113.334578,10.8873778 113.449244,10.4736 C113.619467,9.86382222 114.362133,9.92115556 115.126133,9.92115556 C115.890133,9.92115556 116.138578,10.3198222 116.055911,10.7336 M114.478578,7.08337778 C111.965689,7.08337778 108.234578,7.6176 107.4528,11.1167111 C106.672356,14.6140444 106.994133,13.2131556 106.371022,15.8238222 C105.317244,20.2460444 108.744356,20.6358222 110.563911,20.6358222 C111.206133,20.6358222 117.503911,20.6260444 117.503911,20.6260444 L118.362133,16.7736 L114.026578,16.7736 C112.365689,16.7736 112.214578,15.7371556 112.3528,15.1798222 C112.408356,14.9531556 112.554133,14.4011556 112.554133,14.4011556 L118.874578,14.4038222 C118.874578,14.4038222 119.434578,11.8989333 119.759022,10.5291556 C120.319022,8.16693333 117.642578,7.08337778 114.478578,7.08337778" id="Fill-19" fill="#65B32E"></path>
            <path d="M69.2056444,7.31693333 L78.6505333,7.29871111 C78.6505333,7.29871111 78.4927556,8.03426667 78.2069778,9.25471111 C77.9225333,10.4742667 77.3096444,11.3378222 76.7389778,12.0018222 C76.1345333,12.7058222 72.1803111,16.7729333 72.1803111,16.7729333 L77.1283111,16.7729333 C77.1283111,16.7729333 76.7407556,18.5409333 76.5812,19.2293778 C76.4194222,19.9187111 76.1843111,20.6364889 74.9318667,20.6364889 C73.6789778,20.6364889 65.9843111,20.6373778 65.9843111,20.6373778 C65.9843111,20.6373778 66.4389778,18.3560444 66.5825333,17.7813778 C66.8727556,16.6164889 67.4945333,15.6502667 68.2603111,14.8560444 C69.0487556,14.0391556 71.8989778,10.7622667 71.8989778,10.7622667 C71.8989778,10.7622667 70.1563111,10.7600444 69.5158667,10.7600444 C68.8736444,10.7600444 68.5016444,10.4249333 68.6732,9.63915556 C68.8469778,8.85382222 69.2056444,7.31693333 69.2056444,7.31693333" id="Fill-21" fill="#65B32E"></path>
            <path d="M127.424844,7.30155556 C124.535956,7.30155556 121.759067,7.74955556 121.019511,11.174 C120.278178,14.598 119.291067,18.5566667 119.1564,19.1184444 C119.021289,19.6802222 119.151511,20.6348889 120.436844,20.6348889 C121.723511,20.6348889 124.827511,20.6406667 124.827511,20.6406667 C124.827511,20.6406667 126.0204,15.4264444 126.430178,13.6131111 L126.436844,13.6131111 C126.775511,12.2415556 127.278178,11.7731111 128.235511,11.7731111 C130.8764,11.7731111 131.869289,7.31177778 131.869289,7.31177778 C131.662622,7.31177778 127.757289,7.30155556 127.424844,7.30155556" id="Fill-23" fill="#65B32E"></path>
            <path d="M99.9899556,7.3024 C95.7988444,7.3024 93.4446222,8.89795556 92.9788444,10.9046222 C92.2059556,14.2477333 91.1592889,18.7677333 91.0748444,19.1184 C90.9397333,19.6797333 91.0690667,20.6348444 92.3552889,20.6348444 C93.6419556,20.6348444 96.4628444,20.6406222 96.4628444,20.6406222 L98.6139556,11.4704 C98.8486222,10.5201778 100.455289,10.6321778 100.258844,11.5428444 C100.171289,11.9508444 98.7468444,18.1548444 98.5930667,18.8117333 C98.3032889,20.0437333 98.8486222,20.6295111 99.6295111,20.6295111 C100.411733,20.6295111 103.855289,20.6384 103.855289,20.6384 C103.855289,20.6384 105.8344,12.1268444 106.0144,11.2997333 C106.613956,8.55395556 103.940622,7.3024 99.9899556,7.3024" id="Fill-25" fill="#65B32E"></path>
        </g>
    </g>
</svg>